<svg xmlns="http://www.w3.org/2000/svg" viewBox="0 0 375 375">
    <path fill="#f2f2f2"
        d="
    M196.414 58.52
    a129.095 129.095 0 00-18.996 0
    l-10.774-21.196
    a130.39 130.39 0 00-23.727 7.715
    l3.73 23.488
    a129.341 129.341 0 00-14.562 10.586
    l-21.137-10.797
    a130.295 130.295 0 00-14.683 20.195
    l16.808 16.8
    a129.255 129.255 0 00-5.582 17.145
    l-23.422 3.695
    a129.506 129.506 0 000 24.984
    l23.422 3.7
    a129.255 129.255 0 005.582 17.14
    l-16.808 16.801
    a130.295 130.295 0 0014.683 20.199
    l21.137-10.801
    a129.341 129.341 0 0014.562 10.586
    l-3.73 23.492
    a130.001 130.001 0 0014.75 5.539
    v-50.809
    c-16.434-9.82-27.45-27.789-27.45-48.34
    c0-31.07 25.16-56.258 56.195-56.258
    s56.195 25.188 56.195 56.258
    c0 20.55-11.012 38.52-27.445 48.336
    v50.813
    a130.001 130.001 0 0014.746-5.54
    l-3.73-23.492
    a129.341 129.341 0 0014.562-10.586
    l21.137 10.8
    a130.295 130.295 0 0014.683-20.198
    l-16.805-16.8
    a129.255 129.255 0 005.582-17.141
    l23.418-3.7
    a129.506 129.506 0 000-24.984
    l-23.418-3.695
    a129.255 129.255 0 00-5.582-17.144
    l16.805-16.801
    a130.295 130.295 0 00-14.683-20.195
    l-21.137 10.797
    a129.341 129.341 0 00-14.562-10.586
    l3.73-23.488
    a130.39 130.39 0 00-23.727-7.715
    L196.414 58.52
    Z
    " />
    <path fill="#ff912c"
        d="M186.02 156.867l-19.777-11.434a2.675 2.675 0 01-1.399-2.418v-41.465c-11.004 7.32-18.262 19.836-18.262 34.055 0 15.074 8.172 28.207 20.305 35.293v171.625a5.215 5.215 0 0010.426 0v-87.672a2.934 2.934 0 015.867 0v60.02a4.235 4.235 0 008.473 0v-60.02a2.93 2.93 0 015.863 0v27.997a5.215 5.215 0 0010.43 0V170.898c12.13-7.086 20.301-20.219 20.301-35.293 0-14.219-7.258-26.735-18.258-34.055v41.465c0 .996-.535 1.918-1.399 2.418l-19.781 11.434a2.68 2.68 0 01-2.79 0z" />

</svg>
